<svg width="28" height="28" viewBox="0 0 28 28" fill="none" xmlns="http://www.w3.org/2000/svg">
<g filter="url(#filter0_d_5_67)">
<path d="M5.71875 7.5H22.2812C22.5391 7.5 22.75 7.71094 22.75 7.96875V18.125C22.75 19.1602 21.9102 20 20.875 20H7.125C6.08984 20 5.25 19.1602 5.25 18.125V7.96875C5.25 7.71094 5.46094 7.5 5.71875 7.5ZM22.75 5.78125V4.375C22.75 3.33984 21.9102 2.5 20.875 2.5H19V0.46875C19 0.210938 18.7891 0 18.5312 0H16.9688C16.7109 0 16.5 0.210938 16.5 0.46875V2.5H11.5V0.46875C11.5 0.210938 11.2891 0 11.0312 0H9.46875C9.21094 0 9 0.210938 9 0.46875V2.5H7.125C6.08984 2.5 5.25 3.33984 5.25 4.375V5.78125C5.25 6.03906 5.46094 6.25 5.71875 6.25H22.2812C22.5391 6.25 22.75 6.03906 22.75 5.78125Z" fill="white"/>
<rect x="4.5" y="0.5" width="19" height="19" stroke="black" shape-rendering="crispEdges"/>
</g>
<defs>
<filter id="filter0_d_5_67" x="0" y="0" width="28" height="28" filterUnits="userSpaceOnUse" color-interpolation-filters="sRGB">
<feFlood flood-opacity="0" result="BackgroundImageFix"/>
<feColorMatrix in="SourceAlpha" type="matrix" values="0 0 0 0 0 0 0 0 0 0 0 0 0 0 0 0 0 0 127 0" result="hardAlpha"/>
<feOffset dy="4"/>
<feGaussianBlur stdDeviation="2"/>
<feComposite in2="hardAlpha" operator="out"/>
<feColorMatrix type="matrix" values="0 0 0 0 0 0 0 0 0 0 0 0 0 0 0 0 0 0 0.25 0"/>
<feBlend mode="normal" in2="BackgroundImageFix" result="effect1_dropShadow_5_67"/>
<feBlend mode="normal" in="SourceGraphic" in2="effect1_dropShadow_5_67" result="shape"/>
</filter>
</defs>
</svg>
