<svg width="20" height="20" viewBox="0 0 20 20" fill="none" xmlns="http://www.w3.org/2000/svg">
<g clip-path="url(#clip0_5_73)">
<path d="M19.7266 6.82812L18.1797 5.28125C17.8125 4.91406 17.2188 4.91406 16.8555 5.28125L7.5 14.6367L3.14844 10.2812C2.78125 9.91406 2.1875 9.91406 1.82422 10.2812L0.273438 11.832C-0.09375 12.1992 -0.09375 12.793 0.273438 13.1602L6.83594 19.7266C7.20312 20.0938 7.79688 20.0938 8.16016 19.7266L19.7227 8.15625C20.0898 7.78516 20.0898 7.19141 19.7266 6.82812ZM7.05859 10.9687C7.30078 11.2148 7.69922 11.2148 7.94141 10.9687L16.0664 2.83594C16.3086 2.58984 16.3086 2.19531 16.0664 1.95312L14.3008 0.183594C14.0586 -0.0625 13.6602 -0.0625 13.418 0.183594L7.5 6.10156L5.33594 3.93359C5.09375 3.6875 4.69531 3.6875 4.45312 3.93359L2.68359 5.70312C2.44141 5.94922 2.44141 6.34375 2.68359 6.58594L7.05859 10.9687Z" fill="#FEFEFE"/>
</g>
<defs>
<clipPath id="clip0_5_73">
<rect width="20" height="20" fill="white"/>
</clipPath>
</defs>
</svg>
