<svg width="25" height="25" viewBox="0 0 25 25" fill="none" xmlns="http://www.w3.org/2000/svg">
<g clip-path="url(#clip0_5_61)">
<path d="M1.96096 17.1719C2.0508 17.5039 2.39455 17.7031 2.72658 17.6133L11.1797 15.3477C11.5117 15.2578 11.711 14.9141 11.6211 14.582L9.67971 7.33594C9.58987 7.00391 9.24611 6.80469 8.91408 6.89453L5.89846 7.70703L6.86721 11.3281L4.45315 11.9727L3.4844 8.35156L0.464865 9.16016C0.132834 9.25 -0.0663849 9.59375 0.0234589 9.92578L1.96096 17.1719ZM15 2.5C14.3086 2.5 13.75 3.05859 13.75 3.75V16.3906L0.23049 20.0781C0.0625214 20.125 -0.0351349 20.2969 0.0117401 20.4609L0.503928 22.2695C0.550803 22.4375 0.722678 22.5352 0.88674 22.4883L16.2656 18.293C16.3594 20.6289 18.2656 22.5 20.625 22.5C23.043 22.5 25 20.543 25 18.125V2.5H15ZM20.625 20C19.5899 20 18.75 19.1602 18.75 18.125C18.75 17.0898 19.5899 16.25 20.625 16.25C21.6602 16.25 22.5 17.0898 22.5 18.125C22.5 19.1602 21.6602 20 20.625 20Z" fill="#577696"/>
</g>
<defs>
<clipPath id="clip0_5_61">
<rect width="25" height="25" fill="white"/>
</clipPath>
</defs>
</svg>
