<svg width="22" height="22" viewBox="0 0 22 22" fill="none" xmlns="http://www.w3.org/2000/svg">
<g clip-path="url(#clip0_5_69)">
<path d="M11 0.34375C5.11328 0.34375 0.34375 5.11328 0.34375 11C0.34375 16.8867 5.11328 21.6562 11 21.6562C16.8867 21.6562 21.6562 16.8867 21.6562 11C21.6562 5.11328 16.8867 0.34375 11 0.34375ZM11 4.46875C13.0883 4.46875 14.7812 6.16172 14.7812 8.25C14.7812 10.3383 13.0883 12.0312 11 12.0312C8.91172 12.0312 7.21875 10.3383 7.21875 8.25C7.21875 6.16172 8.91172 4.46875 11 4.46875ZM11 19.25C8.47773 19.25 6.21758 18.107 4.70508 16.3195C5.51289 14.7984 7.09414 13.75 8.9375 13.75C9.04062 13.75 9.14375 13.7672 9.24258 13.7973C9.80117 13.9777 10.3855 14.0938 11 14.0938C11.6145 14.0938 12.2031 13.9777 12.7574 13.7973C12.8562 13.7672 12.9594 13.75 13.0625 13.75C14.9059 13.75 16.4871 14.7984 17.2949 16.3195C15.7824 18.107 13.5223 19.25 11 19.25Z" fill="#FCFCFC"/>
</g>
<defs>
<clipPath id="clip0_5_69">
<rect width="22" height="22" fill="white"/>
</clipPath>
</defs>
</svg>
